# Wavefront OBJ file automatically generated by Tiled2Unity

# Vertices (Count = 201)
v -256 -96 0
v -288 -96 0
v -288 -64 0
v -256 -64 0
v -256 -128 0
v -288 -128 0
v -352 -128 0
v -384 -128 0
v -384 -96 0
v -352 -96 0
v -416 -128 0
v -416 -96 0
v -448 -128 0
v -448 -96 0
v -256 -160 0
v -288 -160 0
v -352 -160 0
v -384 -160 0
v -416 -160 0
v -448 -160 0
v -352 -192 0
v -384 -192 0
v -416 -192 0
v -448 -192 0
v -352 -224 0
v -384 -224 0
v -416 -224 0
v -448 -224 0
v -352 -256 0
v -384 -256 0
v -416 -256 0
v -448 -256 0
v -160 -288 0
v -192 -288 0
v -192 -256 0
v -160 -256 0
v -224 -288 0
v -224 -256 0
v -256 -288 0
v -256 -256 0
v -288 -288 0
v -320 -288 0
v -320 -256 0
v -288 -256 0
v -352 -288 0
v -384 -288 0
v -416 -288 0
v -448 -288 0
v -480 -288 0
v -480 -256 0
v -512 -288 0
v -512 -256 0
v -544 -288 0
v -544 -256 0
v -160 -320 0
v -192 -320 0
v -224 -320 0
v -256 -320 0
v -288 -320 0
v -320 -320 0
v -352 -320 0
v -384 -320 0
v -416 -320 0
v -448 -320 0
v -480 -320 0
v -512 -320 0
v -544 -320 0
v -160 -352 0
v -192 -352 0
v -224 -352 0
v -256 -352 0
v -288 -352 0
v -320 -352 0
v -352 -352 0
v -384 -352 0
v -416 -352 0
v -448 -352 0
v -480 -352 0
v -512 -352 0
v -544 -352 0
v -160 -384 0
v -192 -384 0
v -224 -384 0
v -256 -384 0
v -64 -416 0
v -96 -416 0
v -96 -384 0
v -64 -384 0
v -160 -416 0
v -192 -416 0
v -224 -416 0
v -256 -416 0
v -64 -448 0
v -96 -448 0
v -160 -448 0
v -192 -448 0
v -224 -448 0
v -256 -448 0
v -512 -448 0
v -544 -448 0
v -544 -416 0
v -512 -416 0
v -64 -480 0
v -96 -480 0
v -160 -480 0
v -192 -480 0
v -224 -480 0
v -256 -480 0
v -512 -480 0
v -544 -480 0
v -512 -512 0
v -544 -512 0
v 0 -192 0
v -32 -192 0
v -32 -160 0
v 0 -160 0
v 0 -224 0
v -32 -224 0
v -576 -224 0
v -608 -224 0
v -608 -192 0
v -576 -192 0
v 0 -256 0
v -32 -256 0
v -576 -256 0
v -608 -256 0
v 0 -288 0
v -32 -288 0
v -576 -288 0
v -608 -288 0
v 0 -320 0
v -32 -320 0
v -576 -320 0
v -608 -320 0
v 0 -352 0
v -32 -352 0
v -576 -352 0
v -608 -352 0
v 0 -384 0
v -32 -384 0
v -128 -384 0
v -128 -352 0
v -96 -352 0
v -576 -384 0
v -608 -384 0
v 0 -416 0
v -32 -416 0
v -576 -416 0
v -608 -416 0
v 0 -448 0
v -32 -448 0
v -352 -448 0
v -384 -448 0
v -384 -416 0
v -352 -416 0
v -416 -448 0
v -416 -416 0
v -448 -448 0
v -448 -416 0
v -576 -448 0
v -608 -448 0
v 0 -480 0
v -32 -480 0
v -576 -480 0
v -608 -480 0
v 0 -512 0
v -32 -512 0
v -576 -512 0
v -608 -512 0
v -32 -544 0
v -64 -544 0
v -64 -512 0
v -96 -544 0
v -96 -512 0
v -128 -544 0
v -128 -512 0
v -160 -544 0
v -160 -512 0
v -192 -544 0
v -192 -512 0
v -224 -544 0
v -224 -512 0
v -256 -544 0
v -256 -512 0
v -288 -544 0
v -288 -512 0
v -320 -544 0
v -320 -512 0
v -352 -544 0
v -352 -512 0
v -384 -544 0
v -384 -512 0
v -416 -544 0
v -416 -512 0
v -448 -544 0
v -448 -512 0
v -480 -544 0
v -480 -512 0
v -512 -544 0
v -544 -544 0
v -576 -544 0

# Texture cooridinates (Count = 60)
vt 0.1667887 0.3334554
vt 0.3332113 0.3334554
vt 0.3332113 0.4998779
vt 0.1667887 0.4998779
vt 0.1667887 0.1667887
vt 0.3332113 0.1667887
vt 0.3332113 0.3332113
vt 0.1667887 0.3332113
vt 0.0001220703 0.3334554
vt 0.1665446 0.3334554
vt 0.1665446 0.4998779
vt 0.0001220703 0.4998779
vt 0.3334554 0.3334554
vt 0.4998779 0.3334554
vt 0.4998779 0.4998779
vt 0.3334554 0.4998779
vt 0.1667887 0.0001220703
vt 0.3332113 0.0001220703
vt 0.3332113 0.1665446
vt 0.1667887 0.1665446
vt 0.0001220703 0.1667887
vt 0.1665446 0.1667887
vt 0.1665446 0.3332113
vt 0.0001220703 0.3332113
vt 0.3334554 0.1667887
vt 0.4998779 0.1667887
vt 0.4998779 0.3332113
vt 0.3334554 0.3332113
vt 0.0001220703 0.0001220703
vt 0.1665446 0.0001220703
vt 0.1665446 0.1665446
vt 0.0001220703 0.1665446
vt 0.3334554 0.0001220703
vt 0.4998779 0.0001220703
vt 0.4998779 0.1665446
vt 0.3334554 0.1665446
vt 0.0001220703 0.6667888
vt 0.1665446 0.6667888
vt 0.1665446 0.9998779
vt 0.0001220703 0.9998779
vt 0.1665446 0.6665446
vt 0.0001220703 0.6665446
vt 0.3334554 0.6667888
vt 0.4998779 0.6667888
vt 0.4998779 0.9998779
vt 0.3334554 0.9998779
vt 0.4998779 0.6665446
vt 0.3334554 0.6665446
vt 0.5001221 0.6667888
vt 0.6665446 0.6667888
vt 0.6665446 0.9998779
vt 0.5001221 0.9998779
vt 0.6667888 0.6667888
vt 0.8332112 0.6667888
vt 0.8332112 0.9998779
vt 0.6667888 0.9998779
vt 0.8334554 0.6667888
vt 0.9998779 0.6667888
vt 0.9998779 0.9998779
vt 0.8334554 0.9998779

# Normal
vn 0 0 -1

# Groups (Count = 2)

g mesh_0001
f 1/1/1 2/2/1 3/3/1 4/4/1
f 5/5/1 6/6/1 2/7/1 1/8/1
f 7/9/1 8/10/1 9/11/1 10/12/1
f 8/1/1 11/2/1 12/3/1 9/4/1
f 11/13/1 13/14/1 14/15/1 12/16/1
f 15/17/1 16/18/1 6/19/1 5/20/1
f 17/21/1 18/22/1 8/23/1 7/24/1
f 18/5/1 19/6/1 11/7/1 8/8/1
f 19/25/1 20/26/1 13/27/1 11/28/1
f 21/21/1 22/22/1 18/23/1 17/24/1
f 22/5/1 23/6/1 19/7/1 18/8/1
f 23/25/1 24/26/1 20/27/1 19/28/1
f 25/21/1 26/22/1 22/23/1 21/24/1
f 26/5/1 27/6/1 23/7/1 22/8/1
f 27/25/1 28/26/1 24/27/1 23/28/1
f 29/29/1 30/30/1 26/31/1 25/32/1
f 30/17/1 31/18/1 27/19/1 26/20/1
f 31/33/1 32/34/1 28/35/1 27/36/1
f 33/9/1 34/10/1 35/11/1 36/12/1
f 34/1/1 37/2/1 38/3/1 35/4/1
f 37/13/1 39/14/1 40/15/1 38/16/1
f 41/9/1 42/10/1 43/11/1 44/12/1
f 42/1/1 45/2/1 29/3/1 43/4/1
f 45/1/1 46/2/1 30/3/1 29/4/1
f 46/1/1 47/2/1 31/3/1 30/4/1
f 47/1/1 48/2/1 32/3/1 31/4/1
f 48/1/1 49/2/1 50/3/1 32/4/1
f 49/1/1 51/2/1 52/3/1 50/4/1
f 51/13/1 53/14/1 54/15/1 52/16/1
f 55/21/1 56/22/1 34/23/1 33/24/1
f 56/5/1 57/6/1 37/7/1 34/8/1
f 57/25/1 58/26/1 39/27/1 37/28/1
f 59/21/1 60/22/1 42/23/1 41/24/1
f 60/5/1 61/6/1 45/7/1 42/8/1
f 61/5/1 62/6/1 46/7/1 45/8/1
f 62/5/1 63/6/1 47/7/1 46/8/1
f 63/5/1 64/6/1 48/7/1 47/8/1
f 64/5/1 65/6/1 49/7/1 48/8/1
f 65/5/1 66/6/1 51/7/1 49/8/1
f 66/25/1 67/26/1 53/27/1 51/28/1
f 68/21/1 69/22/1 56/23/1 55/24/1
f 69/5/1 70/6/1 57/7/1 56/8/1
f 70/25/1 71/26/1 58/27/1 57/28/1
f 72/29/1 73/30/1 60/31/1 59/32/1
f 73/17/1 74/18/1 61/19/1 60/20/1
f 74/17/1 75/18/1 62/19/1 61/20/1
f 75/17/1 76/18/1 63/19/1 62/20/1
f 76/17/1 77/18/1 64/19/1 63/20/1
f 77/17/1 78/18/1 65/19/1 64/20/1
f 78/17/1 79/18/1 66/19/1 65/20/1
f 79/33/1 80/34/1 67/35/1 66/36/1
f 81/21/1 82/22/1 69/23/1 68/24/1
f 82/5/1 83/6/1 70/7/1 69/8/1
f 83/25/1 84/26/1 71/27/1 70/28/1
f 85/1/1 86/2/1 87/3/1 88/4/1
f 89/21/1 90/22/1 82/23/1 81/24/1
f 90/5/1 91/6/1 83/7/1 82/8/1
f 91/25/1 92/26/1 84/27/1 83/28/1
f 93/5/1 94/6/1 86/7/1 85/8/1
f 95/21/1 96/22/1 90/23/1 89/24/1
f 96/5/1 97/6/1 91/7/1 90/8/1
f 97/25/1 98/26/1 92/27/1 91/28/1
f 99/1/1 100/2/1 101/3/1 102/4/1
f 103/17/1 104/18/1 94/19/1 93/20/1
f 105/29/1 106/30/1 96/31/1 95/32/1
f 106/17/1 107/18/1 97/19/1 96/20/1
f 107/33/1 108/34/1 98/35/1 97/36/1
f 109/5/1 110/6/1 100/7/1 99/8/1
f 111/17/1 112/18/1 110/19/1 109/20/1

g mesh_0002
f 113/37/1 114/38/1 115/39/1 116/40/1
f 117/9/1 118/10/1 114/41/1 113/42/1
f 119/43/1 120/44/1 121/45/1 122/46/1
f 123/9/1 124/10/1 118/41/1 117/42/1
f 125/13/1 126/14/1 120/47/1 119/48/1
f 127/9/1 128/10/1 124/41/1 123/42/1
f 129/13/1 130/14/1 126/47/1 125/48/1
f 131/9/1 132/10/1 128/41/1 127/42/1
f 61/49/1 62/50/1 46/51/1 45/52/1
f 62/53/1 63/54/1 47/55/1 46/56/1
f 63/57/1 64/58/1 48/59/1 47/60/1
f 133/13/1 134/14/1 130/47/1 129/48/1
f 135/9/1 136/10/1 132/41/1 131/42/1
f 137/13/1 138/14/1 134/47/1 133/48/1
f 139/9/1 140/10/1 136/41/1 135/42/1
f 87/49/1 141/50/1 142/51/1 143/52/1
f 141/53/1 81/54/1 68/55/1 142/56/1
f 81/57/1 82/58/1 69/59/1 68/60/1
f 144/13/1 145/14/1 138/47/1 137/48/1
f 146/9/1 147/10/1 140/41/1 139/42/1
f 148/13/1 149/14/1 145/47/1 144/48/1
f 150/9/1 151/10/1 147/41/1 146/42/1
f 152/49/1 153/50/1 154/51/1 155/52/1
f 153/53/1 156/54/1 157/55/1 154/56/1
f 156/57/1 158/58/1 159/59/1 157/60/1
f 160/13/1 161/14/1 149/47/1 148/48/1
f 162/9/1 163/10/1 151/41/1 150/42/1
f 164/13/1 165/14/1 161/47/1 160/48/1
f 166/29/1 167/30/1 163/23/1 162/24/1
f 168/33/1 169/34/1 165/27/1 164/28/1
f 170/49/1 171/50/1 172/51/1 167/52/1
f 171/53/1 173/54/1 174/55/1 172/56/1
f 173/53/1 175/54/1 176/55/1 174/56/1
f 175/53/1 177/54/1 178/55/1 176/56/1
f 177/53/1 179/54/1 180/55/1 178/56/1
f 179/53/1 181/54/1 182/55/1 180/56/1
f 181/53/1 183/54/1 184/55/1 182/56/1
f 183/53/1 185/54/1 186/55/1 184/56/1
f 185/53/1 187/54/1 188/55/1 186/56/1
f 187/53/1 189/54/1 190/55/1 188/56/1
f 189/53/1 191/54/1 192/55/1 190/56/1
f 191/53/1 193/54/1 194/55/1 192/56/1
f 193/53/1 195/54/1 196/55/1 194/56/1
f 195/53/1 197/54/1 198/55/1 196/56/1
f 197/53/1 199/54/1 111/55/1 198/56/1
f 199/53/1 200/54/1 112/55/1 111/56/1
f 200/57/1 201/58/1 168/59/1 112/60/1

